<!DOCTYPE svg PUBLIC "-//W3C//DTD SVG 1.1//EN" "http://www.w3.org/Graphics/SVG/1.1/DTD/svg11.dtd">
<!-- Uploaded to: SVG Repo, www.svgrepo.com, Transformed by: SVG Repo Mixer Tools -->
<svg fill="#ff9500" version="1.1" id="Capa_1" xmlns="http://www.w3.org/2000/svg" xmlns:xlink="http://www.w3.org/1999/xlink" width="800px" height="800px" viewBox="0 0 235.474 235.474" xml:space="preserve" stroke="#ff9500">
<g id="SVGRepo_bgCarrier" stroke-width="0"/>
<g id="SVGRepo_tracerCarrier" stroke-linecap="round" stroke-linejoin="round"/>
<g id="SVGRepo_iconCarrier"> <g> <path d="M233.562,100.368c-2.117-23.237-14.212-44.966-34.228-61.391c-21.863-17.94-50.841-27.82-81.598-27.82 c-30.756,0-59.734,9.88-81.598,27.82C16.123,55.402,4.03,77.13,1.912,100.368C0.822,100.571,0,101.526,0,102.673v10.081 c0,1.295,1.051,2.345,2.344,2.345h5.961c-2.607,8.145-4.037,16.975-4.037,26.202c0,40.787,27.873,73.851,62.258,73.851 c5.402,0,10.643-0.815,15.639-2.351c10.426,7.312,22.584,11.515,35.572,11.515s25.146-4.201,35.572-11.515 c4.998,1.533,10.238,2.351,15.639,2.351c34.386,0,62.261-33.063,62.261-73.851c0-9.229-1.433-18.059-4.039-26.202h5.961 c1.293,0,2.344-1.05,2.344-2.345v-10.081C235.474,101.525,234.652,100.571,233.562,100.368z M49.758,191.49 c-0.283,0.56-0.881,0.92-1.518,0.92c-0.215,0-0.424-0.039-0.621-0.118c-19.039-7.705-31.828-28.982-31.828-52.947 c0-23.965,12.789-45.241,31.826-52.945c0.203-0.082,0.416-0.124,0.633-0.124c0.639,0,1.219,0.354,1.508,0.923 c0.402,0.788,0.141,1.735-0.609,2.205c-15.545,9.732-25.201,28.869-25.201,49.941s9.656,40.209,25.203,49.942 C49.898,189.757,50.162,190.703,49.758,191.49z M188.322,162.134l-12.685,9.278c-2.435,1.782-4.948,3.626-7.444,5.418l-10.062,7.23 c-0.479,0.344-1.119,0.354-1.608,0.022l-11.353-7.668c-2.379-1.606-4.781-3.261-7.104-4.859c-1.041-0.717-2.082-1.433-3.123-2.146 l-0.033-0.021l-5.01,3.492l-11.443,8.207c-0.217,0.146-0.461,0.223-0.709,0.235c-0.004,0.002-0.006,0.004-0.01,0.006 c-0.002-0.002-0.006-0.004-0.006-0.005c-0.311,0.014-0.621-0.07-0.883-0.259l-10.232-7.46l-6.051-4.217l-0.031,0.021 c-1.043,0.715-2.084,1.431-3.123,2.147c-2.326,1.599-4.727,3.252-7.107,4.858l-11.352,7.667c-0.488,0.331-1.131,0.321-1.607-0.021 l-10.063-7.23c-2.492-1.792-5.012-3.636-7.445-5.418l-12.684-9.277c-0.543-0.398-0.729-1.125-0.441-1.734 c0.287-0.607,0.965-0.93,1.619-0.766l27.016,6.826l23.051-19.671c0.463-0.394,1.123-0.446,1.643-0.134l17.696,10.719l17.697-10.717 c0.521-0.312,1.181-0.26,1.644,0.135l23.053,19.67l27.016-6.826c0.652-0.164,1.332,0.156,1.617,0.766 C189.051,161.009,188.865,161.736,188.322,162.134z M69.316,124.587L81.029,98.72c0.223-0.495,0.713-0.816,1.256-0.825 c0.545-0.01,1.043,0.294,1.287,0.781l12.871,25.967c0.143,0.219,0.225,0.479,0.225,0.76c0,0.775-0.631,1.406-1.406,1.406 c-0.002,0.001-0.008,0-0.01,0c-0.004,0-0.008,0-0.014,0l-24.654-0.234c-0.475-0.005-0.916-0.25-1.172-0.65 C69.156,125.522,69.121,125.021,69.316,124.587z M138.808,125.402c0-0.28,0.082-0.541,0.226-0.76l12.873-25.967 c0.242-0.487,0.742-0.791,1.285-0.781c0.545,0.009,1.032,0.33,1.258,0.825l11.711,25.868c0.195,0.434,0.16,0.936-0.096,1.336 c-0.257,0.4-0.697,0.646-1.173,0.65l-24.653,0.234c-0.004,0-0.008,0-0.015,0c-0.002,0-0.006,0.001-0.01,0 C139.439,126.809,138.808,126.179,138.808,125.402z M168.949,67.451c-5.4,0-10.642,0.815-15.64,2.35 c-10.426-7.313-22.584-11.514-35.572-11.514s-25.146,4.201-35.572,11.514c-4.996-1.534-10.236-2.35-15.639-2.35 c-19.756,0-37.359,10.917-48.766,27.939c7.444-39.148,49.436-69.229,99.977-69.229c50.54,0,92.52,30.076,99.971,69.22 C206.301,78.363,188.699,67.451,168.949,67.451z"/> </g> </g>
</svg>